<?xml version="1.0" encoding="UTF-8"?>
<svg width="288px" height="458px" viewBox="0 0 288 458" version="1.1" xmlns="http://www.w3.org/2000/svg" xmlns:xlink="http://www.w3.org/1999/xlink">
    <title>k4视频雪碧图</title>
    <g id="k4视频雪碧图" stroke="none" stroke-width="1" fill="none" fill-rule="evenodd">
        <g id="volume/middle-one" transform="translate(136.000000, 36.000000)" fill-rule="nonzero">
            <rect id="矩形" fill="#000000" opacity="0" x="0" y="0" width="24" height="24"></rect>
            <path d="M11.5,2.805963 C12.3284271,2.805963 13,3.47753588 13,4.305963 L13,4.305963 L13,19.324844 C13,19.728067 12.8376593,20.11431 12.5495933,20.3964568 C11.9577579,20.9761312 11.0080616,20.9662727 10.4283873,20.3744373 L10.4283873,20.3744373 L7.41738884,17.3002711 C7.22929099,17.1082272 6.97179569,17 6.70298034,17 L6.70298034,17 L4.61329751,17 C3.2472732,17 2.13416287,15.9035362 2.11358128,14.537667 L2.11358128,14.537667 L2.03121714,9.07168262 L2.03121714,9.07168262 L2.03098547,9.04093234 C2.03098547,7.91375653 2.944742,7 4.07191781,7 L4.07191781,7 L5.76806015,7 C6.01030764,7 6.24431944,6.91206411 6.42661798,6.75253012 L6.42661798,6.75253012 L10.5121633,3.17716782 C10.7856111,2.93786684 11.1366288,2.805963 11.5,2.805963 Z M17.7071068,8.29289322 C19.7544853,10.3402718 19.7544853,13.6597282 17.7071068,15.7071068 C17.3165825,16.0976311 16.6834175,16.0976311 16.2928932,15.7071068 C15.9023689,15.3165825 15.9023689,14.6834175 16.2928932,14.2928932 C17.5592232,13.0265633 17.5592232,10.9734367 16.2928932,9.70710678 C15.9023689,9.31658249 15.9023689,8.68341751 16.2928932,8.29289322 C16.6834175,7.90236893 17.3165825,7.90236893 17.7071068,8.29289322 Z" id="形状结合" fill="#888888"></path>
            <path d="M18.2928932,4.29289322 C18.6834175,3.90236893 19.3165825,3.90236893 19.7071068,4.29289322 C23.9636243,8.54941076 23.9636243,15.4505892 19.7071068,19.7071068 C19.3165825,20.0976311 18.6834175,20.0976311 18.2928932,19.7071068 C17.9023689,19.3165825 17.9023689,18.6834175 18.2928932,18.2928932 C21.7683622,14.8174243 21.7683622,9.18257574 18.2928932,5.70710678 C17.9023689,5.31658249 17.9023689,4.68341751 18.2928932,4.29289322 Z" id="路径-6备份" fill="#DDDDDD"></path>
        </g>
        <g id="volume/off-one" transform="translate(136.000000, 100.000000)" fill="#888888" fill-rule="nonzero">
            <path d="M6.97798547,6.268963 L12.9999855,12.625963 L13,19.324844 C13,19.728067 12.8376593,20.11431 12.5495933,20.3964568 C11.9947476,20.9399015 11.1253758,20.9652022 10.5412347,20.4785846 L10.4283873,20.3744373 L7.41738884,17.3002711 C7.26064063,17.1402345 7.05569975,17.038404 6.8361758,17.0089059 L6.70298034,17 L4.61329751,17 C3.30191418,17 2.22361636,15.989499 2.12124148,14.7002252 L2.11358128,14.537667 L2.03121714,9.07168262 L2.03098547,9.04093234 C2.03098547,7.9649918 2.86356115,7.08350972 3.91960063,7.00559801 L4.07191781,7 L5.76806015,7 C5.96993306,7 6.16608674,6.93893341 6.33136055,6.82625497 L6.42661798,6.75253012 L6.97798547,6.268963 Z M20.7071068,6.29289322 C23.6436472,9.2294336 23.8443336,13.8658157 21.3091662,17.0346942 L19.9161956,15.5636651 C21.6414613,13.1897409 21.4336938,9.84790741 19.2928932,7.70710678 C18.9023689,7.31658249 18.9023689,6.68341751 19.2928932,6.29289322 C19.6834175,5.90236893 20.3165825,5.90236893 20.7071068,6.29289322 Z M17.7071068,8.29289322 C19.3309373,9.91672377 19.6668645,12.3407549 18.7148884,14.2956657 L17.1734252,12.6682176 C17.3904973,11.6325292 17.0969867,10.5112002 16.2928932,9.70710678 C15.9023689,9.31658249 15.9023689,8.68341751 16.2928932,8.29289322 C16.6834175,7.90236893 17.3165825,7.90236893 17.7071068,8.29289322 Z M11.5,2.805963 C12.2796961,2.805963 12.9204487,3.40085109 12.9931334,4.16150299 L13,4.305963 L12.9999855,8.263963 L9.23698547,4.291963 L10.5121633,3.17716782 C10.7856111,2.93786684 11.1366288,2.805963 11.5,2.805963 Z" id="形状结合"></path>
            <polygon id="直线" points="0.586302668 1.96179196 2.03820804 0.586302668 21.4136973 21.038208 19.961792 22.4136973"></polygon>
        </g>
        <g id="volume/full" transform="translate(136.000000, 68.000000)" fill-rule="nonzero">
            <rect id="矩形" fill="#000000" opacity="0" x="0" y="0" width="24" height="24"></rect>
            <path d="M11.5,2.805963 C12.3284271,2.805963 13,3.47753588 13,4.305963 L13,4.305963 L13,19.324844 C13,19.728067 12.8376593,20.11431 12.5495933,20.3964568 C11.9577579,20.9761312 11.0080616,20.9662727 10.4283873,20.3744373 L10.4283873,20.3744373 L7.41738884,17.3002711 C7.22929099,17.1082272 6.97179569,17 6.70298034,17 L6.70298034,17 L4.61329751,17 C3.2472732,17 2.13416287,15.9035362 2.11358128,14.537667 L2.11358128,14.537667 L2.03121714,9.07168262 L2.03121714,9.07168262 L2.03098547,9.04093234 C2.03098547,7.91375653 2.944742,7 4.07191781,7 L4.07191781,7 L5.76806015,7 C6.01030764,7 6.24431944,6.91206411 6.42661798,6.75253012 L6.42661798,6.75253012 L10.5121633,3.17716782 C10.7856111,2.93786684 11.1366288,2.805963 11.5,2.805963 Z M20.7071068,6.29289322 C23.8590548,9.44484126 23.8590548,14.5551587 20.7071068,17.7071068 C20.3165825,18.0976311 19.6834175,18.0976311 19.2928932,17.7071068 C18.9023689,17.3165825 18.9023689,16.6834175 19.2928932,16.2928932 C21.6637927,13.9219938 21.6637927,10.0780062 19.2928932,7.70710678 C18.9023689,7.31658249 18.9023689,6.68341751 19.2928932,6.29289322 C19.6834175,5.90236893 20.3165825,5.90236893 20.7071068,6.29289322 Z M17.7071068,8.29289322 C19.7544853,10.3402718 19.7544853,13.6597282 17.7071068,15.7071068 C17.3165825,16.0976311 16.6834175,16.0976311 16.2928932,15.7071068 C15.9023689,15.3165825 15.9023689,14.6834175 16.2928932,14.2928932 C17.5592232,13.0265633 17.5592232,10.9734367 16.2928932,9.70710678 C15.9023689,9.31658249 15.9023689,8.68341751 16.2928932,8.29289322 C16.6834175,7.90236893 17.3165825,7.90236893 17.7071068,8.29289322 Z" id="形状结合" fill="#888888"></path>
        </g>
        <g id="开始" transform="translate(127.000000, 142.000000)" fill-rule="nonzero">
            <g id="编组">
                <g id="icon-停止">
                    <g id="icon-开始">
                        <rect id="矩形" fill="#000000" opacity="0" x="0" y="0" width="40" height="40"></rect>
                        <path d="M28.478286,23.2835448 L16.6095068,30.5608946 C15.6614594,31.1424268 14.4899456,31.1466073 13.538164,30.5718545 C12.5863824,29.9971017 11.9996748,28.9311833 12,27.7773497 L12,13.2226503 C11.9996748,12.0688167 12.5863824,11.0028983 13.538164,10.4281455 C14.4899456,9.85339272 15.6614594,9.85757321 16.6095068,10.4391054 L28.478286,17.7164552 C29.4205126,18.293636 30,19.3536441 30,20.5 C30,21.6463559 29.4205126,22.706364 28.478286,23.2835448 L28.478286,23.2835448 Z" id="路径" fill="#888888"></path>
                    </g>
                </g>
            </g>
        </g>
        <g id="开始备份" transform="translate(128.000000, 182.000000)" fill-rule="nonzero">
            <g id="icon-停止">
                <rect id="矩形" fill="#000000" opacity="0" x="0" y="0" width="40" height="40"></rect>
                <path d="M14,9 C16,9 17,10 17,12 L17,28 C17,30 16,31 14,31 C12,31 11,30 11,28 L11,12 C11,10 12,9 14,9 Z M26,9 C28,9 29,10 29,12 L29,28 C29,30 28,31 26,31 C24,31 23,30 23,28 L23,12 C23,10 24,9 26,9 Z" id="形状结合" fill="#888888"></path>
            </g>
        </g>
        <g id="最小化" transform="translate(41.000000, 252.000000)" fill="#888888">
            <path d="M31.9951843,14.7932866 L32.441499,14.8154208 C34.474161,14.916809 36.1066442,16.5282919 36.2343405,18.5594709 C36.4114468,21.3765832 36.5,23.1900929 36.5,24 C36.5,24.7752091 36.4188719,26.4698705 36.2566156,29.0839841 L36.2339888,29.4461533 C36.1063733,31.4756589 34.4763651,33.0864307 32.4454876,33.1899448 C28.3901043,33.3966483 25.5749418,33.5 24,33.5 C22.4851061,33.5 19.8227605,33.404379 16.0129632,33.2131371 L15.5502801,33.1897233 C13.520457,33.086249 11.8909171,31.477026 11.7619856,29.4486608 C11.5952675,26.8258328 11.5081194,25.0517515 11.5005413,24.1264169 L11.5,24 C11.5,23.1560742 11.5794615,21.4645589 11.7383846,18.9254541 L11.7616366,18.5569594 C11.8906466,16.5269125 13.5226675,14.9169716 15.5542832,14.8156242 C19.621653,14.6127229 22.3846575,14.5076491 23.8432967,14.5004026 L24,14.5 C25.3615656,14.5 28.026627,14.5977622 31.9951843,14.7932866 Z M23.5365023,20.1672783 C23.2204865,19.9457422 22.8299819,19.9441496 22.5127214,20.163103 C22.1954608,20.3820565 21.9998917,20.7881206 22,21.2276763 L22,21.2276763 L22,26.7723237 C21.9998917,27.2118794 22.1954608,27.6179435 22.5127214,27.836897 C22.8299819,28.0558504 23.2204865,28.0542578 23.5365023,27.8327217 L23.5365023,27.8327217 L27.492762,25.060398 C27.8068375,24.8405196 28,24.436707 28,24 C28,23.563293 27.8068375,23.1594804 27.492762,22.939602 L27.492762,22.939602 Z" id="形状结合"></path>
        </g>
        <g id="全屏" transform="translate(131.000000, 332.000000)" fill-rule="nonzero">
            <rect id="矩形" fill="#000000" opacity="0" x="0" y="0" width="24" height="24"></rect>
            <path d="M3,16 C3.55228475,16 4,16.4477153 4,17 L4,17 L4,18 L4.00548574,18.1492623 C4.08183488,19.1841222 4.9456382,20 6,20 L6,20 L7,20 L7.11662113,20.0067277 C7.61395981,20.0644928 8,20.4871642 8,21 C8,21.5522847 7.55228475,22 7,22 L7,22 L6,22 L5.80035966,21.9951047 C3.68396847,21.8910789 2,20.1421954 2,18 L2,18 L2,17 L2.00672773,16.8833789 C2.06449284,16.3860402 2.48716416,16 3,16 Z M21,16 C21.5128358,16 21.9355072,16.3860402 21.9932723,16.8833789 L22,17 L22,18 C22,20.1421954 20.3160315,21.8910789 18.1996403,21.9951047 L18,22 L17,22 C16.4477153,22 16,21.5522847 16,21 C16,20.4871642 16.3860402,20.0644928 16.8833789,20.0067277 L17,20 L18,20 C19.0543618,20 19.9181651,19.1841222 19.9945143,18.1492623 L20,18 L20,17 C20,16.4477153 20.4477153,16 21,16 Z M15,6 C16.6568542,6 18,7.34314575 18,9 L18,9 L18,15 C18,16.6568542 16.6568542,18 15,18 L15,18 L9,18 C7.34314575,18 6,16.6568542 6,15 L6,15 L6,9 C6,7.34314575 7.34314575,6 9,6 L9,6 Z M15,8 L9,8 C8.44771525,8 8,8.44771525 8,9 L8,9 L8,15 C8,15.5522847 8.44771525,16 9,16 L9,16 L15,16 C15.5522847,16 16,15.5522847 16,15 L16,15 L16,9 C16,8.44771525 15.5522847,8 15,8 L15,8 Z M7,2 C7.55228475,2 8,2.44771525 8,3 C8,3.51283584 7.61395981,3.93550716 7.11662113,3.99327227 L7,4 L6,4 C4.9456382,4 4.08183488,4.81587779 4.00548574,5.85073766 L4,6 L4,7 C4,7.55228475 3.55228475,8 3,8 C2.48716416,8 2.06449284,7.61395981 2.00672773,7.11662113 L2,7 L2,6 C2,3.85780461 3.68396847,2.10892112 5.80035966,2.00489531 L6,2 L7,2 Z M18,2 L18.1996403,2.00489531 C20.3160315,2.10892112 22,3.85780461 22,6 L22,6 L22,7 L21.9932723,7.11662113 C21.9355072,7.61395981 21.5128358,8 21,8 C20.4477153,8 20,7.55228475 20,7 L20,7 L20,6 L19.9945143,5.85073766 C19.9181651,4.81587779 19.0543618,4 18,4 L18,4 L17,4 L16.8833789,3.99327227 C16.3860402,3.93550716 16,3.51283584 16,3 C16,2.44771525 16.4477153,2 17,2 L17,2 L18,2 Z" id="形状结合" fill="#888888"></path>
        </g>
        <g id="close" transform="translate(193.000000, 387.000000)" fill="#888888">
            <path d="M14.4527773,1.55840657 C14.736795,1.84242424 14.736795,2.30290786 14.4527773,2.58692553 L9.03631521,8.00314203 L14.4527773,13.4193585 C14.716508,13.6830892 14.7353459,14.0989768 14.5092911,14.3844442 L14.4437173,14.4569375 C14.1596997,14.7409552 13.699216,14.7409552 13.4151984,14.4569375 L7.99898187,9.04047536 L2.58276537,14.4569375 C2.31903468,14.7206682 1.90314712,14.7395061 1.61767974,14.5134512 L1.54518641,14.4478775 C1.26116875,14.1638598 1.26116875,13.7033762 1.54518641,13.4193585 L6.96164854,8.00314203 L1.54508395,2.58682307 C1.28135326,2.32309238 1.26251535,1.90720482 1.48857023,1.62173743 L1.55414396,1.54924411 C1.83816162,1.26522644 2.29864524,1.26522644 2.58266291,1.54924411 L7.99898187,6.9658087 L13.4151984,1.54934657 C13.6789291,1.28561588 14.0948166,1.26677797 14.380284,1.49283285 L14.4527773,1.55840657 Z" id="路径"></path>
        </g>
        <g id="mini" transform="translate(136.000000, 387.000000)" fill="#888888">
            <path d="M0.75,12 L15.25,12 C15.6642136,12 16,12.3357864 16,12.75 C16,13.1642136 15.6642136,13.5 15.25,13.5 L0.75,13.5 C0.335786438,13.5 5.07265313e-17,13.1642136 0,12.75 C-5.07265313e-17,12.3357864 0.335786438,12 0.75,12 Z" id="矩形"></path>
        </g>
        <g id="全屏悬停" transform="translate(189.000000, 332.000000)" fill-rule="nonzero">
            <rect id="矩形" fill="#000000" opacity="0" x="0" y="0" width="24" height="24"></rect>
            <path d="M15,6 L9,6 C7.34314575,6 6,7.34314575 6,9 L6,15 C6,16.6568542 7.34314575,18 9,18 L15,18 C16.6568542,18 18,16.6568542 18,15 L18,9 C18,7.34314575 16.6568542,6 15,6 Z M9,8 L15,8 C15.5522847,8 16,8.44771525 16,9 L16,15 C16,15.5522847 15.5522847,16 15,16 L9,16 C8.44771525,16 8,15.5522847 8,15 L8,9 C8,8.44771525 8.44771525,8 9,8 Z" id="矩形" fill="#888888"></path>
            <path d="M6,1 C6.55228475,1 7,1.44771525 7,2 C7,2.51283584 6.61395981,2.93550716 6.11662113,2.99327227 L6,3 L5,3 C3.9456382,3 3.08183488,3.81587779 3.00548574,4.85073766 L3,5 L3,6 C3,6.55228475 2.55228475,7 2,7 C1.48716416,7 1.06449284,6.61395981 1.00672773,6.11662113 L1,6 L1,5 C1,2.85780461 2.68396847,1.10892112 4.80035966,1.00489531 L5,1 L6,1 Z" id="路径-5" fill="#888888"></path>
            <path d="M22,1 C22.5522847,1 23,1.44771525 23,2 C23,2.51283584 22.6139598,2.93550716 22.1166211,2.99327227 L22,3 L21,3 C19.9456382,3 19.0818349,3.81587779 19.0054857,4.85073766 L19,5 L19,6 C19,6.55228475 18.5522847,7 18,7 C17.4871642,7 17.0644928,6.61395981 17.0067277,6.11662113 L17,6 L17,5 C17,2.85780461 18.6839685,1.10892112 20.8003597,1.00489531 L21,1 L22,1 Z" id="路径-5备份-2" fill="#888888" transform="translate(20.000000, 4.000000) scale(-1, 1) translate(-20.000000, -4.000000) "></path>
            <path d="M6,17 C6.55228475,17 7,17.4477153 7,18 C7,18.5128358 6.61395981,18.9355072 6.11662113,18.9932723 L6,19 L5,19 C3.9456382,19 3.08183488,19.8158778 3.00548574,20.8507377 L3,21 L3,22 C3,22.5522847 2.55228475,23 2,23 C1.48716416,23 1.06449284,22.6139598 1.00672773,22.1166211 L1,22 L1,21 C1,18.8578046 2.68396847,17.1089211 4.80035966,17.0048953 L5,17 L6,17 Z" id="路径-5备份" fill="#888888" transform="translate(4.000000, 20.000000) scale(1, -1) translate(-4.000000, -20.000000) "></path>
            <path d="M22,17 C22.5522847,17 23,17.4477153 23,18 C23,18.5128358 22.6139598,18.9355072 22.1166211,18.9932723 L22,19 L21,19 C19.9456382,19 19.0818349,19.8158778 19.0054857,20.8507377 L19,21 L19,22 C19,22.5522847 18.5522847,23 18,23 C17.4871642,23 17.0644928,22.6139598 17.0067277,22.1166211 L17,22 L17,21 C17,18.8578046 18.6839685,17.1089211 20.8003597,17.0048953 L21,17 L22,17 Z" id="路径-5备份-3" fill="#888888" transform="translate(20.000000, 20.000000) scale(-1, -1) translate(-20.000000, -20.000000) "></path>
        </g>
        <g id="稍后再看" transform="translate(189.000000, 244.000000)">
            <rect id="矩形" fill="#E5EEF5" opacity="0" x="0" y="0" width="56" height="56"></rect>
            <path d="M42.5747801,28.4516129 C47.4724607,28.4516129 51.4428152,32.4219675 51.4428152,37.3196481 C51.4428152,42.2173287 47.4724607,46.1876833 42.5747801,46.1876833 C37.6770995,46.1876833 33.7067449,42.2173287 33.7067449,37.3196481 C33.7067449,32.4219675 37.6770995,28.4516129 42.5747801,28.4516129 Z M44.0527859,32.8856305 L41.0967742,32.8856305 L41.0967742,38.6708611 L44.4856838,42.0597707 L46.5758998,39.9695548 L44.0527859,37.4452786 L44.0527859,32.8856305 Z M37.5098826,12.6327117 L38.0542806,12.6597235 C41.058576,12.8095764 43.4714031,15.1913646 43.6601395,18.1934681 C43.9219038,22.3571779 44.0527859,25.0375565 44.0527859,26.2346041 L44.0526885,26.3322661 C43.5692087,26.2678534 43.0758773,26.2346041 42.5747801,26.2346041 C36.4526793,26.2346041 31.4897361,31.1975473 31.4897361,37.3196481 C31.4897361,38.2824455 31.6124823,39.216574 31.8431796,40.1072385 C29.0789918,40.2193782 26.9906627,40.2756598 25.5777126,40.2756598 C23.3218979,40.2756598 19.3446083,40.1322036 13.6458439,39.8452911 L13.088977,39.8170691 C10.0888865,39.6641334 7.68041706,37.2856924 7.48985552,34.2877567 C7.24093081,30.3716449 7.11202336,27.7357173 7.10313319,26.379974 L7.1026393,26.2346041 C7.1026393,24.9745504 7.2224927,22.4360604 7.46219949,18.6191342 L7.48932622,18.1897702 C7.68000419,15.1893426 10.0921458,12.8098353 13.0948922,12.6600429 C19.1457809,12.3581935 23.2435266,12.2028299 25.3881293,12.1939519 L25.5777126,12.1935484 C27.6032655,12.1935484 31.5806555,12.3399362 37.5098826,12.6327117 Z M23.3795061,20.5636479 C22.9532216,20.8578429 22.6755822,21.3805922 22.6287456,21.9613097 L22.6217009,22.1370934 L22.6217009,30.3321148 C22.6215407,30.9817806 22.9105932,31.5819458 23.3795061,31.9055603 C23.8093429,32.2022069 24.3301442,32.2249496 24.7737247,31.9744743 L24.8926603,31.8993893 L30.7400353,27.8018786 C31.2042408,27.4768971 31.4897361,26.8800596 31.4897361,26.2346041 C31.4897361,25.6478263 31.2537896,25.1012289 30.8621258,24.7625334 L30.7400353,24.6673296 L24.8926603,20.5698189 C24.4255871,20.2423873 23.848419,20.2400334 23.3795061,20.5636479 Z" id="形状结合" fill="#888888"></path>
        </g>
        <g id="再看一遍" transform="translate(112.000000, 244.000000)">
            <rect id="矩形" fill="#E5EEF5" opacity="0" x="0" y="0" width="56" height="56"></rect>
            <path d="M32.2481574,9.60379342 C32.6235137,9.39336313 33.0589546,9.31591807 33.4838491,9.38402024 C34.5249158,9.55088258 35.2335984,10.5301025 35.0667496,11.5711714 C34.9024795,12.5960647 34.7529896,13.4949786 34.6182797,14.2679133 C34.9216609,14.2974863 35.2239526,14.3841172 35.5114792,14.5306193 C43.6533206,18.6790947 46.8905833,28.6423651 42.7421079,36.7842065 C38.5936325,44.9260478 28.6303622,48.1633106 20.4885208,44.0148352 C12.3466794,39.8663598 9.10941666,29.9030895 13.2578921,21.7612481 C13.896119,20.5086571 15.4289299,20.0106167 16.6815208,20.6488437 C17.9341118,21.2870707 18.4321523,22.8198815 17.7939253,24.0724725 C14.9219038,29.7091319 17.1630858,36.6067806 22.7997452,39.478802 C28.4364046,42.3508234 35.3340533,40.1096415 38.2060747,34.4729821 C41.0376065,28.9157881 38.8990902,22.132909 33.4366218,19.190507 C33.230195,19.8126764 32.980657,20.5346051 32.6881766,21.3548245 C32.5464476,21.7522831 32.2770304,22.0915866 31.9220333,22.319704 C31.0350101,22.8896956 29.8538662,22.6326908 29.2838903,21.7456574 L29.2838903,21.7456574 L25.4291595,15.7469104 C25.4084509,15.7146837 25.388717,15.6818409 25.3699846,15.6484268 C24.8543895,14.7287309 25.181978,13.5651977 26.1016739,13.0496027 L26.1016739,13.0496027 Z" id="形状结合" fill="#888888" fill-rule="nonzero"></path>
        </g>
    </g>
</svg>